<svg width="45" height="37" viewBox="0 0 45 37" fill="none" xmlns="http://www.w3.org/2000/svg">
<g clip-path="url(#clip0_12_13)">
<path d="M39.5433 -0.0361974C38.3268 -0.0542469 35.501 0.359971 30.7829 3.52722C28.2115 2.88263 25.4756 2.56454 22.7349 2.56454C19.7194 2.56454 16.6721 2.94861 13.8302 3.73055C7.05641 -0.904481 4.06652 0.0453742 4.06652 0.0453742C2.11461 4.94125 3.3208 8.56603 3.68741 9.46626C1.39322 11.9497 -0.00732422 15.121 -0.00732422 19.0078C-0.00732422 21.9421 0.325642 24.5739 1.13913 26.8618C1.18425 27.0383 1.16962 26.999 1.24563 27.1501C1.42485 27.6238 1.62412 28.0835 1.84809 28.5275C1.92484 28.6872 1.99469 28.8055 1.99469 28.8055C4.28148 33.081 8.78948 35.8429 16.8103 36.71L28.9413 36.7238C37.4952 35.873 41.5998 33.103 43.4912 28.7986L43.6115 28.5183C43.7907 28.0835 43.9469 27.6311 44.3743 26.1082C44.8016 24.5853 44.9927 21.9479 44.9927 19.0066C44.9927 14.7882 43.4131 11.4127 40.8479 8.84475C41.2962 7.39344 41.895 4.17035 40.25 0.0441979C40.25 0.0441979 40.0194 -0.0291394 39.5434 -0.0362342L39.5433 -0.0361974ZM29.9835 15.4443C31.9587 15.44 33.6506 15.7802 34.9209 17.1169V17.118C36.5104 18.7922 37.4406 20.8134 37.4406 22.9916C37.4406 33.1617 30.9193 33.4383 22.8758 33.4383C14.8309 33.4383 8.31102 32.029 8.31102 22.9916C8.31102 20.8278 9.2276 18.8187 10.7975 17.1513C13.4162 14.3726 17.8477 15.8441 22.8758 15.8441C25.4568 15.8437 27.8809 15.4489 29.9836 15.4443L29.9835 15.4443ZM15.0007 18.4391C13.327 18.4391 11.9702 20.7088 11.9702 23.5097C11.9702 26.3111 13.3269 28.5815 15.0007 28.5815C16.6743 28.5815 18.0311 26.3111 18.0311 23.5097C18.0311 20.7092 16.6744 18.4412 15.0007 18.4391ZM31.2605 18.4391C29.5868 18.4391 28.23 20.7088 28.23 23.5097C28.23 26.3111 29.5867 28.5815 31.2605 28.5815C32.9341 28.5815 34.291 26.3111 34.291 23.5097C34.291 20.7092 32.9342 18.4412 31.2605 18.4391Z" fill="#30452F"/>
</g>
<defs>
<clipPath id="clip0_12_13">
<rect width="45" height="36.7606" fill="white"/>
</clipPath>
</defs>
</svg>
