<svg width="45" height="45" viewBox="0 0 45 45" fill="none" xmlns="http://www.w3.org/2000/svg">
<path d="M8.82289 0.011261C3.97562 0.011261 0.00842285 3.97837 0.00842285 8.82573V36.1786C0.00842285 41.0258 3.97553 44.9916 8.82289 44.9916H36.1758C41.0231 44.9916 44.9888 41.0259 44.9888 36.1786V8.82573C44.9888 3.97846 41.0231 0.011261 36.1758 0.011261H8.82289ZM11.0399 7.43392C13.364 7.43392 14.7956 8.95969 14.8398 10.9653C14.8398 12.9266 13.3639 14.4953 10.9949 14.4953H10.9513C8.67138 14.4953 7.19776 12.9267 7.19776 10.9653C7.19776 8.95974 8.71597 7.43392 11.0398 7.43392H11.0399ZM31.0685 16.8079C35.5383 16.8079 38.889 19.7294 38.889 26.0075V37.7277H32.0961V26.7933C32.0961 24.0456 31.113 22.171 28.6547 22.171C26.778 22.171 25.6594 23.4345 25.1683 24.6551C24.9889 25.0917 24.9448 25.7016 24.9448 26.3125V37.7277H18.1519C18.1519 37.7277 18.241 19.2051 18.1519 17.2872H24.9462V20.1818C25.8489 18.789 27.4636 16.8078 31.0685 16.8078V16.8079ZM7.59844 17.2887H14.3913V37.7278H7.59844V17.2887Z" fill="#30452F"/>
</svg>
